<svg xmlns="http://www.w3.org/2000/svg" width="19" height="19" viewBox="0 0 19 19">
    <g fill="none" fill-rule="evenodd">
        <path fill="#4285F4" d="M18.35 10.112c0-.638-.057-1.252-.163-1.84H9.711v3.48h4.843a4.14 4.14 0 0 1-1.796 2.717v2.258h2.91c1.7-1.567 2.683-3.874 2.683-6.615z"/>
        <path fill="#34A853" d="M9.71 18.907c2.43 0 4.468-.805 5.957-2.18l-2.909-2.258c-.805.54-1.836.859-3.047.859-2.344 0-4.328-1.583-5.036-3.71H1.668v2.331a8.997 8.997 0 0 0 8.043 4.958z"/>
        <path fill="#FBBC05" d="M4.675 11.617a5.41 5.41 0 0 1-.282-1.71c0-.593.102-1.17.282-1.71V5.866H1.668a8.996 8.996 0 0 0-.957 4.041c0 1.453.347 2.827.957 4.042l3.007-2.332z"/>
        <path fill="#EA4335" d="M9.71 4.487c1.322 0 2.508.454 3.441 1.346l2.582-2.581C14.173 1.799 12.137.907 9.71.907a8.997 8.997 0 0 0-8.043 4.959l3.007 2.331c.708-2.127 2.692-3.71 5.036-3.71z"/>
    </g>
</svg>
