<?xml version="1.0" encoding="UTF-8"?>
<svg width="119px" height="49px" viewBox="0 0 119 49" version="1.1" xmlns="http://www.w3.org/2000/svg" xmlns:xlink="http://www.w3.org/1999/xlink">
    <!-- Generator: Sketch 50.2 (55047) - http://www.bohemiancoding.com/sketch -->
    <title>Group Copy</title>
    <desc>Created with Sketch.</desc>
    <defs></defs>
    <g id="Sign-Up-Screen" stroke="none" stroke-width="1" fill="none" fill-rule="evenodd">
        <g id="Artboard" transform="translate(-850.000000, -618.000000)">
            <g id="Group-Copy" transform="translate(851.000000, 618.000000)">
                <path d="M24.3899,2.9898 C36.2089,2.9898 45.7899,12.5708 45.7899,24.3898 C45.7899,36.2088 36.2089,45.7898 24.3899,45.7898 C12.5709,45.7898 2.9899,36.2088 2.9899,24.3898 C2.9899,12.5708 12.5709,2.9898 24.3899,2.9898" id="Fill-1" fill="#303030"></path>
                <path d="M24.3899,0.3902 C37.6449,0.3902 48.3899,11.1352 48.3899,24.3902 C48.3899,37.6442 37.6449,48.3902 24.3899,48.3902 C11.1349,48.3902 0.3899,37.6442 0.3899,24.3902 C0.3899,11.1352 11.1349,0.3902 24.3899,0.3902 Z" id="Stroke-3" stroke="#303030" stroke-width="0.78"></path>
                <path d="M47.2898,1.19 C47.2898,1.19 42.1898,5.69 36.9898,5.69 C36.9898,10.09 36.9898,14.49 38.8898,17.79 C40.7898,20.99 43.7898,23.29 47.2898,24.29 C50.6898,23.19 53.5898,20.89 55.4898,17.79 C57.3898,14.39 57.5898,10.19 57.5898,5.69 C52.3898,5.79 47.2898,1.19 47.2898,1.19" id="Fill-5" fill="#FFFFFF"></path>
                <path d="M47.2898,3.19 C47.2898,3.19 42.9898,6.99 38.7898,6.99 C38.7898,10.69 38.7898,14.29 40.3898,17.09 C41.8898,19.69 44.3898,21.59 47.3898,22.49 C50.1898,21.59 52.5898,19.59 54.0898,17.09 C55.6898,14.29 55.8898,10.69 55.8898,6.99 C51.4898,6.99 47.2898,3.19 47.2898,3.19" id="Fill-7" fill="#27cc8d"></path>
                <path d="M51.0901,9.19 C50.7901,8.99 50.2901,9.09 49.9901,9.39 L46.1901,14.49 L44.3901,12.69 C44.0901,12.39 43.5901,12.29 43.2901,12.59 C42.9901,12.89 42.8901,13.39 43.1901,13.69 L43.2901,13.79 L45.6901,16.19 C45.8901,16.39 46.0901,16.39 46.2901,16.39 L46.3901,16.39 C46.5901,16.39 46.7901,16.29 46.9901,16.09 L51.2901,10.29 C51.4901,9.99 51.4901,9.49 51.0901,9.19" id="Fill-9" fill="#FFFFFF"></path>
                <path d="M29.8899,21.8902 L18.8899,21.8902 L18.8899,19.8902 C19.0899,16.8902 21.6899,14.4902 24.6899,14.6902 C27.4899,14.8902 29.6899,17.0902 29.8899,19.8902 L29.8899,21.8902 Z M25.0899,30.1902 L25.7899,32.4902 L22.9899,32.4902 L23.6899,30.1902 C23.0899,29.8902 22.6899,29.2902 22.6899,28.6902 C22.6899,27.7902 23.4899,26.9902 24.3899,26.9902 C25.2899,26.9902 26.0899,27.7902 26.0899,28.6902 C26.0899,29.2902 25.6899,29.8902 25.0899,30.1902 Z M32.2899,21.8902 L32.2899,19.8902 C32.0899,15.5902 28.4899,12.1902 24.0899,12.2902 C19.9899,12.3902 16.6899,15.7902 16.4899,19.8902 L16.4899,21.8902 L14.9899,21.8902 L14.9899,34.9902 C14.9899,35.9902 15.7899,36.7902 16.7899,36.7902 L32.0899,36.7902 C33.0899,36.7902 33.8899,35.9902 33.8899,34.9902 L33.8899,21.8902 L32.2899,21.8902 Z" id="Fill-11" fill="#FFFFFF"></path>
                <g id="Group-2" transform="translate(61.000000, 10.000000)" fill="#303030">
                    <path d="M0.236595238,11.0902727 L1.8832619,9.10845455 C3.0232619,10.0539091 4.21754762,10.6539091 5.66607143,10.6539091 C6.80697619,10.6539091 7.49369048,10.1993636 7.49369048,9.45390909 L7.49369048,9.41754545 C7.49369048,8.70754545 7.05940476,8.34390909 4.9422619,7.79845455 C2.38992857,7.14390909 0.743261905,6.43481818 0.743261905,3.90754545 L0.743261905,3.87118182 C0.743261905,1.56118182 2.58988095,0.033 5.1775,0.033 C7.02321429,0.033 8.5975,0.615727273 9.88316667,1.65209091 L8.43554762,3.76118182 C7.3127381,2.97936364 6.20983333,2.50663636 5.14130952,2.50663636 C4.07278571,2.50663636 3.51183333,2.99754545 3.51183333,3.61572727 L3.51183333,3.65209091 C3.51183333,4.48936364 4.05559524,4.76209091 6.24511905,5.32572727 C8.81464286,5.99845455 10.2631667,6.92572727 10.2631667,9.14481818 L10.2631667,9.18027273 C10.2631667,11.7084545 8.34507143,13.1275455 5.61178571,13.1275455 C3.69278571,13.1275455 1.75659524,12.4539091 0.236595238,11.0902727" id="Fill-13"></path>
                    <path d="M11.0937381,11.0902727 L12.7404048,9.10845455 C13.8804048,10.0539091 15.0746905,10.6539091 16.5232143,10.6539091 C17.664119,10.6539091 18.3508333,10.1993636 18.3508333,9.45390909 L18.3508333,9.41754545 C18.3508333,8.70754545 17.9165476,8.34390909 15.7994048,7.79845455 C13.2470714,7.14390909 11.6004048,6.43481818 11.6004048,3.90754545 L11.6004048,3.87118182 C11.6004048,1.56118182 13.4470238,0.033 16.0346429,0.033 C17.8803571,0.033 19.4546429,0.615727273 20.7403095,1.65209091 L19.2926905,3.76118182 C18.169881,2.97936364 17.0669762,2.50663636 15.9984524,2.50663636 C14.9299286,2.50663636 14.3689762,2.99754545 14.3689762,3.61572727 L14.3689762,3.65209091 C14.3689762,4.48936364 14.9127381,4.76209091 17.1022619,5.32572727 C19.6717857,5.99845455 21.1203095,6.92572727 21.1203095,9.14481818 L21.1203095,9.18027273 C21.1203095,11.7084545 19.2022143,13.1275455 16.4689286,13.1275455 C14.5499286,13.1275455 12.6137381,12.4539091 11.0937381,11.0902727" id="Fill-15"></path>
                    <polygon id="Fill-17" points="23.0004952 0.215363636 25.7880667 0.215363636 25.7880667 10.399 32.1051143 10.399 32.1051143 12.9453636 23.0004952 12.9453636"></polygon>
                    <path d="M0.0554619048,28.0176364 L1.23165238,26.1994545 C2.28117619,26.9630909 3.38589048,27.3630909 4.29065238,27.3630909 C5.08684286,27.3630909 5.44874762,27.0721818 5.44874762,26.6358182 L5.44874762,26.5994545 C5.44874762,25.9994545 4.50779524,25.7994545 3.43927143,25.4721818 C2.08212857,25.0712727 0.544033333,24.4349091 0.544033333,22.544 L0.544033333,22.5076364 C0.544033333,20.5249091 2.13731905,19.4158182 4.09160476,19.4158182 C5.32208095,19.4158182 6.66203333,19.834 7.71155714,20.5430909 L6.66203333,22.4530909 C5.70208095,21.8894545 4.74303333,21.5430909 4.03641429,21.5430909 C3.36689048,21.5430909 3.02308095,21.8349091 3.02308095,22.2167273 L3.02308095,22.2530909 C3.02308095,22.7985455 3.94684286,23.0530909 4.99636667,23.4167273 C6.35350952,23.8712727 7.9287,24.5258182 7.9287,26.3085455 L7.9287,26.3449091 C7.9287,28.5085455 6.31731905,29.4912727 4.21827143,29.4912727 C2.86112857,29.4912727 1.34022381,29.0358182 0.0554619048,28.0176364" id="Fill-19"></path>
                    <path d="M15.7271143,23.6715455 C15.5642571,22.4351818 14.8404476,21.5979091 13.6814476,21.5979091 C12.5414476,21.5979091 11.7995429,22.417 11.5824,23.6715455 L15.7271143,23.6715455 Z M8.88530476,24.4897273 L8.88530476,24.4533636 C8.88530476,21.6706364 10.8585905,19.3797273 13.6814476,19.3797273 C16.9214,19.3797273 18.4061143,21.9079091 18.4061143,24.6715455 C18.4061143,24.8897273 18.3871143,25.1442727 18.3699238,25.3988182 L11.6185905,25.3988182 C11.890019,26.6542727 12.7594952,27.3079091 13.9899714,27.3079091 C14.9128286,27.3079091 15.5823524,27.0179091 16.3432571,26.3079091 L17.9175429,27.7088182 C17.012781,28.8360909 15.709019,29.527 13.953781,29.527 C11.0395429,29.527 8.88530476,27.4724545 8.88530476,24.4897273 Z" id="Fill-21"></path>
                    <path d="M19.4353714,24.4896364 L19.4353714,24.4532727 C19.4353714,21.6705455 21.5525143,19.3796364 24.5210381,19.3796364 C26.3495619,19.3796364 27.4886571,19.9978182 28.393419,21.016 L26.7105619,22.8350909 C26.0953238,22.1796364 25.4800857,21.7623636 24.5029429,21.7623636 C23.1268,21.7623636 22.1496571,22.9805455 22.1496571,24.4169091 L22.1496571,24.4532727 C22.1496571,25.9450909 23.1096095,27.1450909 24.6115143,27.1450909 C25.5343714,27.1450909 26.1677048,26.7441818 26.8381333,26.1087273 L28.4486095,27.7450909 C27.5076571,28.7814545 26.4219429,29.5278182 24.4848476,29.5278182 C21.5706095,29.5278182 19.4353714,27.2723636 19.4353714,24.4896364" id="Fill-23"></path>
                    <path d="M29.6228095,25.8719091 L29.6228095,19.5619091 L32.3741905,19.5619091 L32.3741905,24.9991818 C32.3741905,26.3082727 32.9894286,26.981 34.0389524,26.981 C35.089381,26.981 35.758,26.3082727 35.758,24.9991818 L35.758,19.5619091 L38.509381,19.5619091 L38.509381,29.3091818 L35.758,29.3091818 L35.758,27.9264545 C35.1246667,28.7455455 34.3112857,29.491 32.9170476,29.491 C30.8360952,29.491 29.6228095,28.1082727 29.6228095,25.8719091" id="Fill-25"></path>
                    <path d="M40.4251238,19.5615455 L43.1765048,19.5615455 L43.1765048,21.5251818 C43.7374571,20.1797273 44.642219,19.307 46.2716952,19.3797273 L46.2716952,22.2706364 L46.1269333,22.2706364 C44.2984095,22.2706364 43.1765048,23.3806364 43.1765048,25.7079091 L43.1765048,29.3088182 L40.4251238,29.3088182 L40.4251238,19.5615455 Z" id="Fill-27"></path>
                    <path d="M53.545981,23.6715455 C53.382219,22.4351818 52.6593143,21.5979091 51.5003143,21.5979091 C50.3603143,21.5979091 49.6184095,22.417 49.4012667,23.6715455 L53.545981,23.6715455 Z M46.7041714,24.4897273 L46.7041714,24.4533636 C46.7041714,21.6706364 48.6765524,19.3797273 51.5003143,19.3797273 C54.7402667,19.3797273 56.2240762,21.9079091 56.2240762,24.6715455 C56.2240762,24.8897273 56.205981,25.1442727 56.1878857,25.3988182 L49.4374571,25.3988182 C49.7088857,26.6542727 50.5774571,27.3079091 51.8079333,27.3079091 C52.7316952,27.3079091 53.401219,27.0179091 54.161219,26.3079091 L55.7355048,27.7088182 C54.8307429,28.8360909 53.526981,29.527 51.7717429,29.527 C48.8575048,29.527 46.7041714,27.4724545 46.7041714,24.4897273 Z" id="Fill-29"></path>
                </g>
            </g>
        </g>
    </g>
</svg>